<svg width="100" height="100" viewBox="0 0 100 100" fill="none" xmlns="http://www.w3.org/2000/svg">
<g clip-path="url(#clip0_146_132)">
<path d="M37.5023 83.3333H24.5856C23.5459 83.3338 22.5162 83.1293 21.5555 82.7316C20.5948 82.334 19.7219 81.7508 18.9867 81.0156C18.2514 80.2804 17.6683 79.4075 17.2706 78.4468C16.8729 77.4861 16.6685 76.4564 16.6689 75.4167V20.4167C16.6685 19.3769 16.8729 18.3472 17.2706 17.3865C17.6683 16.4258 18.2514 15.5529 18.9867 14.8177C19.7219 14.0825 20.5948 13.4994 21.5555 13.1017C22.5162 12.704 23.5459 12.4995 24.5856 12.5H62.5023C63.542 12.4995 64.5717 12.704 65.5324 13.1017C66.4931 13.4994 67.366 14.0825 68.1012 14.8177C68.8365 15.5529 69.4196 16.4258 69.8173 17.3865C70.215 18.3472 70.4194 19.3769 70.4189 20.4167V37.5" stroke="#11CC7A" stroke-width="4" stroke-linecap="round" stroke-linejoin="round"/>
<path d="M37.3771 54.9125C35.5212 53.0566 34.4785 50.5393 34.4785 47.9146C34.4785 45.2899 35.5212 42.7727 37.3771 40.9167C39.2331 39.0607 41.7503 38.0181 44.3751 38.0181C46.9998 38.0181 49.517 39.0607 51.373 40.9167" stroke="#11CC7A" stroke-width="4" stroke-linecap="round" stroke-linejoin="round"/>
<path d="M33.3356 70.8333H29.1689" stroke="#11CC7A" stroke-width="4" stroke-linecap="round" stroke-linejoin="round"/>
<path d="M58.3356 25H54.1689" stroke="#11CC7A" stroke-width="4" stroke-linecap="round" stroke-linejoin="round"/>
<path d="M50 56.6665V84.9998C50.0047 88.6808 57.4619 91.6665 66.6667 91.6665C75.8714 91.6665 83.3286 88.6808 83.3333 84.9998V56.6665" stroke="#11CC7A" stroke-width="4" stroke-linecap="round" stroke-linejoin="round"/>
<path d="M83.3286 56.6667C83.3286 60.3476 75.8667 63.3333 66.6619 63.3333C57.4572 63.3333 50 60.3476 50 56.6667C50 52.981 57.4667 50 66.6667 50C75.8667 50 83.3286 52.9857 83.3333 56.6667" stroke="#11CC7A" stroke-width="4" stroke-linecap="round" stroke-linejoin="round"/>
<path d="M50.0029 70.8333C50.0029 74.5142 57.4601 77.4999 66.6648 77.4999C75.8696 77.4999 83.3315 74.5142 83.3315 70.8333" stroke="#11CC7A" stroke-width="4" stroke-linecap="round" stroke-linejoin="round"/>
</g>
<defs>
<clipPath id="clip0_146_132">
<rect width="100" height="100" fill="white"/>
</clipPath>
</defs>
</svg>
