<svg width="183" height="58" viewBox="0 0 183 58" fill="none" xmlns="http://www.w3.org/2000/svg">
<path d="M71.3109 40.6812C69.2674 40.6812 67.5229 39.9834 66.0775 38.5878V45.2605C66.0775 46.2199 66.2831 46.8181 66.6943 47.0548C67.1179 47.2916 68.1771 47.4099 69.8717 47.4099V49.4659H59.4235V47.4099C60.4951 47.4099 61.168 47.2978 61.4421 47.0735C61.7163 46.8617 61.8845 46.6311 61.9468 46.3819C62.0091 46.1327 62.0402 45.8212 62.0402 45.4474V26.0088C62.0402 25.1117 61.9592 24.526 61.7973 24.2519C61.6477 23.9777 61.2241 23.8407 60.5263 23.8407H59.1992V21.7847C60.4328 21.7847 61.3985 21.6974 62.0963 21.523C62.7941 21.3361 63.2925 21.2052 63.5916 21.1305C63.8906 21.0433 64.2084 20.9996 64.5448 20.9996C65.2052 20.9996 65.6351 21.1928 65.8345 21.5791C66.0463 21.9529 66.1522 22.5572 66.1522 23.3921V23.4482C67.5478 21.8034 69.4481 20.981 71.853 20.981C74.2703 20.981 76.2204 21.7971 77.7032 23.4295C79.1861 25.0493 79.9275 27.4044 79.9275 30.4946C79.9275 33.5849 79.1549 36.0583 77.6098 37.9149C76.0771 39.7591 73.9775 40.6812 71.3109 40.6812ZM65.984 31.0367C65.984 33.3294 66.4264 35.1362 67.3111 36.457C68.1958 37.7779 69.3795 38.4383 70.8624 38.4383C72.3327 38.4383 73.4853 37.7654 74.3202 36.4197C75.155 35.0615 75.5725 33.2547 75.5725 30.9993C75.5725 27.3982 74.7002 25.0182 72.9557 23.8594C72.3327 23.4357 71.5975 23.2239 70.7502 23.2239C69.9029 23.2239 69.1864 23.4232 68.6008 23.822C68.0151 24.2207 67.5291 24.769 67.1429 25.4668C66.3703 26.8873 65.984 28.7439 65.984 31.0367Z" fill="#123149"/>
<path d="M83.2544 30.7376C83.2544 29.2423 83.485 27.8654 83.946 26.6069C84.4195 25.3359 85.0737 24.283 85.9086 23.4482C87.5534 21.8034 89.7402 20.981 92.4691 20.981C95.2229 20.981 97.4409 21.8096 99.1231 23.4669C100.818 25.1117 101.665 27.4543 101.665 30.4946C101.665 33.5226 100.886 35.9773 99.3287 37.8589C97.7711 39.7404 95.4846 40.6812 92.4691 40.6812C89.4536 40.6812 87.1609 39.7716 85.5908 37.9523C84.0332 36.1206 83.2544 33.7157 83.2544 30.7376ZM92.4691 38.4383C93.9145 38.4383 95.0858 37.7779 95.983 36.457C96.8926 35.1362 97.3474 33.2796 97.3474 30.8872C97.3474 27.0368 96.3755 24.6319 94.4316 23.6725C93.8335 23.3734 93.1793 23.2239 92.4691 23.2239C90.1639 23.2239 88.6624 24.6195 87.9646 27.4106C87.7154 28.3701 87.5907 29.4916 87.5907 30.775C87.5907 33.2422 88.0393 35.1362 88.9365 36.457C89.8461 37.7779 91.0236 38.4383 92.4691 38.4383Z" fill="#123149"/>
<path d="M116.506 40.6812C114.462 40.6812 112.718 39.9834 111.272 38.5878V45.2605C111.272 46.2199 111.478 46.8181 111.889 47.0548C112.313 47.2916 113.372 47.4099 115.066 47.4099V49.4659H104.618V47.4099C105.69 47.4099 106.363 47.2978 106.637 47.0735C106.911 46.8617 107.079 46.6311 107.141 46.3819C107.204 46.1327 107.235 45.8212 107.235 45.4474V26.0088C107.235 25.1117 107.154 24.526 106.992 24.2519C106.842 23.9777 106.419 23.8407 105.721 23.8407H104.394V21.7847C105.627 21.7847 106.593 21.6974 107.291 21.523C107.989 21.3361 108.487 21.2052 108.786 21.1305C109.085 21.0433 109.403 20.9996 109.74 20.9996C110.4 20.9996 110.83 21.1928 111.029 21.5791C111.241 21.9529 111.347 22.5572 111.347 23.3921V23.4482C112.743 21.8034 114.643 20.981 117.048 20.981C119.465 20.981 121.415 21.7971 122.898 23.4295C124.381 25.0493 125.122 27.4044 125.122 30.4946C125.122 33.5849 124.35 36.0583 122.804 37.9149C121.272 39.7591 119.172 40.6812 116.506 40.6812ZM111.179 31.0367C111.179 33.3294 111.621 35.1362 112.506 36.457C113.39 37.7779 114.574 38.4383 116.057 38.4383C117.527 38.4383 118.68 37.7654 119.515 36.4197C120.35 35.0615 120.767 33.2547 120.767 30.9993C120.767 27.3982 119.895 25.0182 118.15 23.8594C117.527 23.4357 116.792 23.2239 115.945 23.2239C115.098 23.2239 114.381 23.4232 113.795 23.822C113.21 24.2207 112.724 24.769 112.338 25.4668C111.565 26.8873 111.179 28.7439 111.179 31.0367Z" fill="#123149"/>
<path d="M128.075 38.2514C129.159 38.2514 129.901 38.1019 130.3 37.8028C130.711 37.5037 130.916 36.9866 130.916 36.2514V16.0092C130.916 15.112 130.835 14.5264 130.673 14.2522C130.524 13.9781 130.1 13.841 129.402 13.841H127.888V11.785C129.147 11.785 130.131 11.6978 130.842 11.5233C131.552 11.3364 132.056 11.2056 132.356 11.1308C132.667 11.0436 132.991 11 133.327 11C133.975 11 134.405 11.1869 134.617 11.5607C134.841 11.9345 134.954 12.5451 134.954 13.3924V36.2514C134.954 37.024 135.116 37.5536 135.44 37.8402C135.776 38.1143 136.549 38.2514 137.757 38.2514V40.3074H128.075V38.2514Z" fill="#123149"/>
<path d="M156.953 35.8402C156.953 37.3231 157.246 38.0645 157.831 38.0645C158.392 38.0645 158.803 37.8776 159.065 37.5037C159.327 37.1175 159.457 36.4259 159.457 35.429H161.42C161.432 35.591 161.439 35.8465 161.439 36.1954C161.439 37.3168 161.158 38.2888 160.598 39.1112C159.912 40.1579 158.822 40.6812 157.327 40.6812C156.355 40.6812 155.526 40.4071 154.841 39.8588C154.155 39.3105 153.682 38.5878 153.42 37.6907C151.613 39.6843 149.327 40.6812 146.561 40.6812C145.04 40.6812 143.713 40.2388 142.579 39.3541C141.458 38.457 140.897 37.2109 140.897 35.616C140.897 32.8497 142.941 30.8062 147.028 29.4853C149.62 28.6629 151.171 28.096 151.682 27.7845C152.193 27.4605 152.523 27.1365 152.673 26.8125C152.835 26.4761 152.916 26.1023 152.916 25.6911C152.916 24.9559 152.554 24.3453 151.831 23.8594C151.109 23.3609 150.168 23.1117 149.009 23.1117C147.85 23.1117 146.829 23.4232 145.944 24.0463C146.567 24.5073 146.878 25.0992 146.878 25.8219C146.878 26.5446 146.635 27.124 146.149 27.5602C145.676 27.9963 145.097 28.2143 144.411 28.2143C143.738 28.2143 143.178 28.0087 142.729 27.5975C142.293 27.1863 142.075 26.6132 142.075 25.878C142.075 24.4201 142.81 23.2426 144.28 22.3454C145.751 21.4358 147.539 20.981 149.645 20.981C153.408 20.981 155.707 22.2021 156.542 24.6444C156.816 25.4543 156.953 26.3889 156.953 27.448V35.8402ZM148.71 31.1862C147.614 31.6597 146.791 32.2703 146.243 33.0179C145.695 33.7531 145.42 34.5568 145.42 35.429C145.42 36.3013 145.657 36.9617 146.131 37.4103C146.604 37.8589 147.196 38.0832 147.906 38.0832C149.352 38.0832 150.548 37.5785 151.495 36.5692C152.442 35.5474 152.916 34.1269 152.916 32.3077V29.4293C152.118 29.8405 151.271 30.2143 150.374 30.5507C149.489 30.8872 148.934 31.099 148.71 31.1862Z" fill="#123149"/>
<path d="M162.541 38.2514C163.613 38.2514 164.286 38.1455 164.56 37.9336C164.834 37.7093 164.996 37.4726 165.046 37.2234C165.108 36.9742 165.139 36.6626 165.139 36.2888V25.9901C165.139 25.093 165.058 24.5073 164.896 24.2332C164.747 23.959 164.329 23.822 163.644 23.822H162.504V21.766C163.688 21.766 164.604 21.6788 165.252 21.5043C165.912 21.3174 166.379 21.1866 166.653 21.1118C166.94 21.0246 167.245 20.981 167.569 20.981C168.205 20.981 168.628 21.1679 168.84 21.5417C169.065 21.9155 169.177 22.5261 169.177 23.3734V23.7472C170.248 22.4887 171.463 21.6414 172.821 21.2052C173.307 21.0557 173.793 20.981 174.279 20.981C175.214 20.981 175.937 21.2489 176.447 21.7847C176.971 22.3205 177.232 22.9809 177.232 23.7659C177.232 24.5509 176.983 25.1926 176.485 25.6911C175.986 26.1895 175.382 26.4387 174.672 26.4387C173.974 26.4387 173.395 26.1895 172.934 25.6911C172.485 25.1926 172.286 24.5696 172.335 23.822C171.825 23.8967 171.276 24.1335 170.691 24.5322C170.117 24.9185 169.613 25.4481 169.177 26.121V36.1206C169.177 36.5941 169.214 36.9742 169.289 37.2608C169.376 37.5349 169.594 37.7716 169.943 37.971C170.304 38.1579 171.376 38.2514 173.158 38.2514V40.3074H162.541V38.2514Z" fill="#123149"/>
<circle cx="34.2941" cy="37.0558" r="2.07143" fill="#7B935C"/>
<circle cx="2.07143" cy="37.0558" r="2.07143" fill="#AFD37F"/>
<circle cx="34.2941" cy="24.6271" r="2.07143" fill="#7B935C"/>
<circle cx="2.07143" cy="24.6271" r="2.07143" fill="#AFD37F"/>
<circle cx="9.89565" cy="41.1984" r="2.07143" fill="#AFD37F"/>
<circle cx="9.89565" cy="29.6906" r="2.07143" fill="#AFD37F"/>
<circle cx="26.9289" cy="17.7223" r="2.07143" fill="#7B935C"/>
<circle cx="9.89565" cy="17.7223" r="2.07143" fill="#AFD37F"/>
<circle cx="19.1027" cy="25.0871" r="2.07143" fill="#7B935C"/>
<circle cx="19.1027" cy="13.5792" r="2.07143" fill="#AFD37F"/>
<circle cx="26.9289" cy="8.97621" r="2.07143" fill="#AFD37F"/>
<circle cx="9.89565" cy="8.97621" r="2.07143" fill="#AFD37F"/>
<circle cx="19.1027" cy="2.07143" r="2.07143" fill="#AFD37F"/>
<circle cx="19.1027" cy="55.9289" r="2.07143" fill="#7B935C"/>
<circle cx="19.1027" cy="45.8014" r="2.07143" fill="#7B935C"/>
<circle cx="26.9289" cy="41.1984" r="2.07143" fill="#7B935C"/>
<circle cx="26.9289" cy="29.6906" r="2.07143" fill="#7B935C"/>
<circle cx="19.1027" cy="35.2145" r="2.07143" fill="#7B935C"/>
</svg>
