<svg width="100" height="100" viewBox="0 0 100 100" fill="none" xmlns="http://www.w3.org/2000/svg">
<g clip-path="url(#clip0_11_1231)">
<path d="M40.3555 40.3571C40.834 38.2947 42.0178 36.4642 43.7024 35.1818C45.3869 33.8994 47.4665 33.2457 49.5818 33.3335C51.9281 33.2035 54.2306 34.0067 55.9869 35.5679C57.7432 37.1291 58.8108 39.3215 58.9568 41.6668C58.9568 47.9331 49.9985 50.0001 49.9985 54.1668" stroke="#11CC7A" stroke-width="4" stroke-linecap="round" stroke-linejoin="round"/>
<path d="M50.5221 65.6257C50.522 65.7287 50.4914 65.8293 50.4341 65.9149C50.3768 66.0004 50.2954 66.0671 50.2003 66.1064C50.1052 66.1457 50.0005 66.156 49.8995 66.1359C49.7986 66.1158 49.7058 66.0662 49.633 65.9934C49.5602 65.9206 49.5106 65.8278 49.4905 65.7269C49.4704 65.6259 49.4806 65.5212 49.52 65.4261C49.5593 65.3309 49.626 65.2496 49.7115 65.1923C49.7971 65.135 49.8977 65.1044 50.0006 65.1042C50.0691 65.1042 50.137 65.1176 50.2003 65.1438C50.2636 65.1699 50.3211 65.2084 50.3696 65.2568C50.418 65.3052 50.4564 65.3628 50.4826 65.4261C50.5088 65.4894 50.5222 65.5572 50.5221 65.6257" stroke="#11CC7A" stroke-width="4" stroke-linecap="round" stroke-linejoin="round"/>
<path d="M19.2979 71.4928C13.9072 63.7983 11.596 54.3627 12.8205 45.0478C14.0449 35.7329 18.7161 27.2152 25.9123 21.1752C33.1085 15.1353 42.3072 12.0117 51.6933 12.4209C61.0794 12.8301 69.9713 16.7423 76.6146 23.3856C83.2579 30.0289 87.1701 38.9208 87.5793 48.3069C87.9885 57.6931 84.865 66.8917 78.825 74.0879C72.785 81.2841 64.2673 85.9553 54.9524 87.1798C45.6375 88.4042 36.202 86.0931 28.5074 80.7023L16.6668 83.3334L19.2979 71.4928Z" stroke="#11CC7A" stroke-width="4" stroke-linecap="round" stroke-linejoin="round"/>
</g>
<defs>
<clipPath id="clip0_11_1231">
<rect width="100" height="100" fill="white"/>
</clipPath>
</defs>
</svg>
