<svg width="178" height="58" viewBox="0 0 178 58" fill="none" xmlns="http://www.w3.org/2000/svg">
<path d="M71.6947 40.6812C69.6512 40.6812 67.9067 39.9834 66.4613 38.5878V45.2605C66.4613 46.2199 66.6669 46.8181 67.0781 47.0548C67.5017 47.2916 68.5609 47.4099 70.2555 47.4099V49.4659H59.8073V47.4099C60.8789 47.4099 61.5518 47.2978 61.8259 47.0735C62.1001 46.8617 62.2683 46.6311 62.3306 46.3819C62.3929 46.1327 62.424 45.8212 62.424 45.4474V26.0088C62.424 25.1117 62.343 24.526 62.181 24.2519C62.0315 23.9777 61.6079 23.8407 60.9101 23.8407H59.583V21.7847C60.8166 21.7847 61.7823 21.6974 62.4801 21.523C63.1779 21.3361 63.6763 21.2052 63.9754 21.1305C64.2744 21.0433 64.5922 20.9996 64.9286 20.9996C65.589 20.9996 66.0189 21.1928 66.2183 21.5791C66.4301 21.9529 66.536 22.5572 66.536 23.3921V23.4482C67.9316 21.8034 69.8319 20.981 72.2368 20.981C74.6541 20.981 76.6042 21.7971 78.087 23.4295C79.5698 25.0493 80.3113 27.4044 80.3113 30.4946C80.3113 33.5849 79.5387 36.0583 77.9936 37.9149C76.4609 39.7591 74.3613 40.6812 71.6947 40.6812ZM66.3678 31.0367C66.3678 33.3294 66.8102 35.1362 67.6949 36.457C68.5796 37.7779 69.7633 38.4383 71.2462 38.4383C72.7165 38.4383 73.8691 37.7654 74.704 36.4197C75.5388 35.0615 75.9563 33.2547 75.9563 30.9993C75.9563 27.3982 75.084 25.0182 73.3395 23.8594C72.7165 23.4357 71.9813 23.2239 71.134 23.2239C70.2867 23.2239 69.5702 23.4232 68.9845 23.822C68.3989 24.2207 67.9129 24.769 67.5267 25.4668C66.7541 26.8873 66.3678 28.7439 66.3678 31.0367Z" fill="white"/>
<path d="M83.6382 30.7376C83.6382 29.2423 83.8688 27.8654 84.3298 26.6069C84.8033 25.3359 85.4575 24.283 86.2924 23.4482C87.9372 21.8034 90.124 20.981 92.8529 20.981C95.6067 20.981 97.8247 21.8096 99.5068 23.4669C101.201 25.1117 102.049 27.4543 102.049 30.4946C102.049 33.5226 101.27 35.9773 99.7124 37.8589C98.1549 39.7404 95.8683 40.6812 92.8529 40.6812C89.8374 40.6812 87.5446 39.7716 85.9746 37.9523C84.417 36.1206 83.6382 33.7157 83.6382 30.7376ZM92.8529 38.4383C94.2983 38.4383 95.4696 37.7779 96.3668 36.457C97.2764 35.1362 97.7312 33.2796 97.7312 30.8872C97.7312 27.0368 96.7593 24.6319 94.8154 23.6725C94.2173 23.3734 93.5631 23.2239 92.8529 23.2239C90.5477 23.2239 89.0461 24.6195 88.3484 27.4106C88.0991 28.3701 87.9745 29.4916 87.9745 30.775C87.9745 33.2422 88.4231 35.1362 89.3203 36.457C90.2299 37.7779 91.4074 38.4383 92.8529 38.4383Z" fill="white"/>
<path d="M116.889 40.6812C114.846 40.6812 113.101 39.9834 111.656 38.5878V45.2605C111.656 46.2199 111.862 46.8181 112.273 47.0548C112.696 47.2916 113.756 47.4099 115.45 47.4099V49.4659H105.002V47.4099C106.074 47.4099 106.746 47.2978 107.021 47.0735C107.295 46.8617 107.463 46.6311 107.525 46.3819C107.588 46.1327 107.619 45.8212 107.619 45.4474V26.0088C107.619 25.1117 107.538 24.526 107.376 24.2519C107.226 23.9777 106.803 23.8407 106.105 23.8407H104.778V21.7847C106.011 21.7847 106.977 21.6974 107.675 21.523C108.373 21.3361 108.871 21.2052 109.17 21.1305C109.469 21.0433 109.787 20.9996 110.123 20.9996C110.784 20.9996 111.214 21.1928 111.413 21.5791C111.625 21.9529 111.731 22.5572 111.731 23.3921V23.4482C113.126 21.8034 115.027 20.981 117.431 20.981C119.849 20.981 121.799 21.7971 123.282 23.4295C124.765 25.0493 125.506 27.4044 125.506 30.4946C125.506 33.5849 124.733 36.0583 123.188 37.9149C121.656 39.7591 119.556 40.6812 116.889 40.6812ZM111.562 31.0367C111.562 33.3294 112.005 35.1362 112.89 36.457C113.774 37.7779 114.958 38.4383 116.441 38.4383C117.911 38.4383 119.064 37.7654 119.899 36.4197C120.734 35.0615 121.151 33.2547 121.151 30.9993C121.151 27.3982 120.279 25.0182 118.534 23.8594C117.911 23.4357 117.176 23.2239 116.329 23.2239C115.481 23.2239 114.765 23.4232 114.179 23.822C113.594 24.2207 113.108 24.769 112.721 25.4668C111.949 26.8873 111.562 28.7439 111.562 31.0367Z" fill="white"/>
<path d="M128.459 38.2514C129.543 38.2514 130.285 38.1019 130.683 37.8028C131.095 37.5037 131.3 36.9866 131.3 36.2514V16.0092C131.3 15.112 131.219 14.5264 131.057 14.2522C130.908 13.9781 130.484 13.841 129.786 13.841H128.272V11.785C129.531 11.785 130.515 11.6978 131.225 11.5233C131.936 11.3364 132.44 11.2056 132.739 11.1308C133.051 11.0436 133.375 11 133.711 11C134.359 11 134.789 11.1869 135.001 11.5607C135.225 11.9345 135.337 12.5451 135.337 13.3924V36.2514C135.337 37.024 135.499 37.5536 135.823 37.8402C136.16 38.1143 136.932 38.2514 138.141 38.2514V40.3074H128.459V38.2514Z" fill="white"/>
<path d="M157.337 35.8402C157.337 37.3231 157.629 38.0645 158.215 38.0645C158.776 38.0645 159.187 37.8776 159.449 37.5037C159.71 37.1175 159.841 36.4259 159.841 35.429H161.804C161.816 35.591 161.822 35.8465 161.822 36.1954C161.822 37.3168 161.542 38.2888 160.981 39.1112C160.296 40.1579 159.206 40.6812 157.71 40.6812C156.738 40.6812 155.91 40.4071 155.225 39.8588C154.539 39.3105 154.066 38.5878 153.804 37.6907C151.997 39.6843 149.711 40.6812 146.944 40.6812C145.424 40.6812 144.097 40.2388 142.963 39.3541C141.842 38.457 141.281 37.2109 141.281 35.616C141.281 32.8497 143.325 30.8062 147.412 29.4853C150.004 28.6629 151.555 28.096 152.066 27.7845C152.577 27.4605 152.907 27.1365 153.056 26.8125C153.218 26.4761 153.299 26.1023 153.299 25.6911C153.299 24.9559 152.938 24.3453 152.215 23.8594C151.493 23.3609 150.552 23.1117 149.393 23.1117C148.234 23.1117 147.212 23.4232 146.328 24.0463C146.951 24.5073 147.262 25.0992 147.262 25.8219C147.262 26.5446 147.019 27.124 146.533 27.5602C146.06 27.9963 145.48 28.2143 144.795 28.2143C144.122 28.2143 143.561 28.0087 143.113 27.5975C142.677 27.1863 142.459 26.6132 142.459 25.878C142.459 24.4201 143.194 23.2426 144.664 22.3454C146.134 21.4358 147.923 20.981 150.028 20.981C153.792 20.981 156.091 22.2021 156.925 24.6444C157.2 25.4543 157.337 26.3889 157.337 27.448V35.8402ZM149.094 31.1862C147.997 31.6597 147.175 32.2703 146.627 33.0179C146.078 33.7531 145.804 34.5568 145.804 35.429C145.804 36.3013 146.041 36.9617 146.515 37.4103C146.988 37.8589 147.58 38.0832 148.29 38.0832C149.736 38.0832 150.932 37.5785 151.879 36.5692C152.826 35.5474 153.299 34.1269 153.299 32.3077V29.4293C152.502 29.8405 151.655 30.2143 150.757 30.5507C149.873 30.8872 149.318 31.099 149.094 31.1862Z" fill="white"/>
<path d="M162.925 38.2514C163.997 38.2514 164.67 38.1455 164.944 37.9336C165.218 37.7093 165.38 37.4726 165.43 37.2234C165.492 36.9742 165.523 36.6626 165.523 36.2888V25.9901C165.523 25.093 165.442 24.5073 165.28 24.2332C165.131 23.959 164.713 23.822 164.028 23.822H162.888V21.766C164.072 21.766 164.987 21.6788 165.635 21.5043C166.296 21.3174 166.763 21.1866 167.037 21.1118C167.324 21.0246 167.629 20.981 167.953 20.981C168.589 20.981 169.012 21.1679 169.224 21.5417C169.448 21.9155 169.56 22.5261 169.56 23.3734V23.7472C170.632 22.4887 171.847 21.6414 173.205 21.2052C173.691 21.0557 174.177 20.981 174.663 20.981C175.598 20.981 176.32 21.2489 176.831 21.7847C177.355 22.3205 177.616 22.9809 177.616 23.7659C177.616 24.5509 177.367 25.1926 176.869 25.6911C176.37 26.1895 175.766 26.4387 175.056 26.4387C174.358 26.4387 173.778 26.1895 173.317 25.6911C172.869 25.1926 172.669 24.5696 172.719 23.822C172.208 23.8967 171.66 24.1335 171.074 24.5322C170.501 24.9185 169.997 25.4481 169.56 26.121V36.1206C169.56 36.5941 169.598 36.9742 169.673 37.2608C169.76 37.5349 169.978 37.7716 170.327 37.971C170.688 38.1579 171.76 38.2514 173.542 38.2514V40.3074H162.925V38.2514Z" fill="white"/>
<circle cx="34.6779" cy="37.0558" r="2.07143" fill="#7B935C"/>
<circle cx="2.45522" cy="37.0558" r="2.07143" fill="#AFD37F"/>
<circle cx="34.6779" cy="24.6271" r="2.07143" fill="#7B935C"/>
<circle cx="2.45522" cy="24.6271" r="2.07143" fill="#AFD37F"/>
<circle cx="10.2794" cy="41.1984" r="2.07143" fill="#AFD37F"/>
<circle cx="10.2794" cy="29.6906" r="2.07143" fill="#AFD37F"/>
<circle cx="27.3126" cy="17.7223" r="2.07143" fill="#7B935C"/>
<circle cx="10.2794" cy="17.7223" r="2.07143" fill="#AFD37F"/>
<circle cx="19.4865" cy="25.0871" r="2.07143" fill="#7B935C"/>
<circle cx="19.4865" cy="13.5792" r="2.07143" fill="#AFD37F"/>
<circle cx="27.3126" cy="8.97621" r="2.07143" fill="#AFD37F"/>
<circle cx="10.2794" cy="8.97621" r="2.07143" fill="#AFD37F"/>
<circle cx="19.4865" cy="2.07143" r="2.07143" fill="#AFD37F"/>
<circle cx="19.4865" cy="55.9284" r="2.07143" fill="#7B935C"/>
<circle cx="19.4865" cy="45.8014" r="2.07143" fill="#7B935C"/>
<circle cx="27.3126" cy="41.1984" r="2.07143" fill="#7B935C"/>
<circle cx="27.3126" cy="29.6906" r="2.07143" fill="#7B935C"/>
<circle cx="19.4865" cy="35.2145" r="2.07143" fill="#7B935C"/>
</svg>
