<svg width="100" height="100" viewBox="0 0 100 100" fill="none" xmlns="http://www.w3.org/2000/svg">
<g clip-path="url(#clip0_146_142)">
<path d="M25 87.5002H16.6667C14.3667 87.5002 12.5 85.6335 12.5 83.3335V58.3335C12.5 56.0335 14.3667 54.1669 16.6667 54.1669H25C27.3 54.1669 29.1667 56.0335 29.1667 58.3335V83.3335C29.1667 85.6335 27.3 87.5002 25 87.5002Z" stroke="#11CC7A" stroke-width="4" stroke-linecap="round" stroke-linejoin="round"/>
<path d="M54.1689 70.8333H63.8898C65.6939 70.8333 67.4481 70.25 68.8898 69.1667L78.9564 61.6167C81.4689 59.7333 84.9856 59.9833 87.2064 62.2042C89.6731 64.6708 89.6731 68.6667 87.2064 71.1292L78.5689 79.7667C76.2439 82.0917 73.2773 83.6792 70.0523 84.325L57.8439 86.7667C55.4231 87.25 52.9273 87.1917 50.5314 86.5917L39.4898 83.8333C38.1689 83.5 36.8148 83.3333 35.4523 83.3333H29.1689" stroke="#11CC7A" stroke-width="4" stroke-linecap="round" stroke-linejoin="round"/>
<path d="M54.1689 70.8335H60.3564C63.8439 70.8335 66.6689 68.0085 66.6689 64.521V63.2585C66.6689 60.3627 64.6981 57.8377 61.8898 57.1377L52.3398 54.7502C50.7856 54.3627 49.1939 54.1669 47.5939 54.1669C43.7314 54.1669 39.9523 55.3085 36.7398 57.4544L29.1689 62.5002" stroke="#11CC7A" stroke-width="4" stroke-linecap="round" stroke-linejoin="round"/>
<path d="M71.5352 21.4803C76.1531 26.0983 76.1531 33.5854 71.5352 38.2034C66.9172 42.8214 59.4301 42.8214 54.8121 38.2034C50.1941 33.5854 50.1941 26.0983 54.8121 21.4803C59.4301 16.8624 66.9172 16.8624 71.5352 21.4803Z" stroke="#11CC7A" stroke-width="4" stroke-linecap="round" stroke-linejoin="round"/>
<path d="M60.9625 18.229C60.575 15.8748 59.5 13.6123 57.6833 11.7956C53.0667 7.17896 45.5792 7.17896 40.9625 11.7956C36.3458 16.4123 36.3458 23.8998 40.9625 28.5165C43.8375 31.3915 47.8208 32.4706 51.5333 31.7665" stroke="#11CC7A" stroke-width="4" stroke-linecap="round" stroke-linejoin="round"/>
</g>
<defs>
<clipPath id="clip0_146_142">
<rect width="100" height="100" fill="white"/>
</clipPath>
</defs>
</svg>
